<svg width="621" height="371" aria-label="A chart." style="overflow: hidden;"><defs id="defs"><clipPath id="_ABSTRACT_RENDERER_ID_699"><rect x="116" y="71" width="389" height="229"></rect></clipPath></defs><rect x="0" y="0" width="621" height="371" stroke="none" stroke-width="0" fill="#ffffff"></rect><g><g><text text-anchor="start" x="116" y="47.6" font-family="Arial" font-size="16" font-weight="bold" stroke="#ffffff" stroke-width="3" fill="#000000" aria-hidden="true">Cluster quality by k</text><text text-anchor="start" x="116" y="47.6" font-family="Arial" font-size="16" font-weight="bold" stroke="none" stroke-width="0" fill="#000000">Cluster quality by k</text></g></g><g><rect x="518" y="71" width="90" height="97" stroke="none" stroke-width="0" fill-opacity="0" fill="#ffffff"></rect><g><rect x="518" y="71" width="90" height="13" stroke="none" stroke-width="0" fill-opacity="0" fill="#ffffff"></rect><g><text text-anchor="start" x="536" y="82.05" font-family="Arial" font-size="13" stroke="none" stroke-width="0" fill="#222222">January</text></g><rect x="518" y="71" width="13" height="13" stroke="none" stroke-width="0" fill="#3366cc"></rect></g><g><rect x="518" y="92" width="90" height="13" stroke="none" stroke-width="0" fill-opacity="0" fill="#ffffff"></rect><g><text text-anchor="start" x="536" y="103.05" font-family="Arial" font-size="13" stroke="none" stroke-width="0" fill="#222222">February</text></g><rect x="518" y="92" width="13" height="13" stroke="none" stroke-width="0" fill="#dc3912"></rect></g><g><rect x="518" y="113" width="90" height="13" stroke="none" stroke-width="0" fill-opacity="0" fill="#ffffff"></rect><g><text text-anchor="start" x="536" y="124.05" font-family="Arial" font-size="13" stroke="none" stroke-width="0" fill="#222222">March</text></g><rect x="518" y="113" width="13" height="13" stroke="none" stroke-width="0" fill="#ff9900"></rect></g><g><rect x="518" y="134" width="90" height="13" stroke="none" stroke-width="0" fill-opacity="0" fill="#ffffff"></rect><g><text text-anchor="start" x="536" y="145.05" font-family="Arial" font-size="13" stroke="none" stroke-width="0" fill="#222222">April</text></g><rect x="518" y="134" width="13" height="13" stroke="none" stroke-width="0" fill="#109618"></rect></g><g><rect x="518" y="155" width="90" height="13" stroke="none" stroke-width="0" fill-opacity="0" fill="#ffffff"></rect><g><text text-anchor="start" x="536" y="166.05" font-family="Arial" font-size="13" stroke="none" stroke-width="0" fill="#222222">May</text></g><rect x="518" y="155" width="13" height="13" stroke="none" stroke-width="0" fill="#990099"></rect></g></g><g><rect x="116" y="71" width="389" height="229" stroke="none" stroke-width="0" fill-opacity="0" fill="#ffffff"></rect><g clip-path="url(#_ABSTRACT_RENDERER_ID_699)"><g><rect x="171" y="71" width="1" height="229" stroke="none" stroke-width="0" fill="#cccccc"></rect><rect x="255" y="71" width="1" height="229" stroke="none" stroke-width="0" fill="#cccccc"></rect><rect x="338" y="71" width="1" height="229" stroke="none" stroke-width="0" fill="#cccccc"></rect><rect x="421" y="71" width="1" height="229" stroke="none" stroke-width="0" fill="#cccccc"></rect><rect x="504" y="71" width="1" height="229" stroke="none" stroke-width="0" fill="#cccccc"></rect><rect x="116" y="299" width="389" height="1" stroke="none" stroke-width="0" fill="#cccccc"></rect><rect x="116" y="242" width="389" height="1" stroke="none" stroke-width="0" fill="#cccccc"></rect><rect x="116" y="185" width="389" height="1" stroke="none" stroke-width="0" fill="#cccccc"></rect><rect x="116" y="128" width="389" height="1" stroke="none" stroke-width="0" fill="#cccccc"></rect><rect x="116" y="71" width="389" height="1" stroke="none" stroke-width="0" fill="#cccccc"></rect></g><g><rect x="116" y="71" width="1" height="229" stroke="none" stroke-width="0" fill="#333333"></rect><rect x="116" y="299" width="389" height="1" stroke="none" stroke-width="0" fill="#333333"></rect></g><g><path d="M504.5,226.40377L449.07142857142856,241.22177499999998L393.64285714285717,265.703845L338.2142857142857,267.31609000000003L282.7857142857143,275.86552L227.35714285714286,258.6766L171.92857142857144,256.35384999999997L116.5,288.728425" stroke="#3366cc" stroke-width="2" fill-opacity="1" fill="none"></path><path d="M504.5,225.18568L449.07142857142856,248.78482L393.64285714285717,273.092755L338.2142857142857,267.600805L282.7857142857143,272.44438L227.35714285714286,259.23748L171.92857142857144,252.634885L116.5,279.98918499999996" stroke="#dc3912" stroke-width="2" fill-opacity="1" fill="none"></path><path d="M504.5,228.79834L449.07142857142856,216.623425L393.64285714285717,225.89561500000002L338.2142857142857,256.74373L282.7857142857143,253.6207L227.35714285714286,233.47975L171.92857142857144,240.36934L116.5,233.45580999999999" stroke="#ff9900" stroke-width="2" fill-opacity="1" fill="none"></path><path d="M504.5,208.68845500000003L449.07142857142856,196.62383499999999L393.64285714285717,224.60314L338.2142857142857,235.94215L282.7857142857143,240.71732500000002L227.35714285714286,252.77254L171.92857142857144,203.46811000000002L116.5,88.18675000000002" stroke="#109618" stroke-width="2" fill-opacity="1" fill="none"></path><path d="M504.5,233.36461L449.07142857142856,235.18006L393.64285714285717,263.297305L338.2142857142857,278.64313L282.7857142857143,288.28468L227.35714285714286,234.68929L171.92857142857144,208.417705L116.5,231.70448500000003" stroke="#990099" stroke-width="2" fill-opacity="1" fill="none"></path></g></g><g></g><g><g><g><text text-anchor="middle" x="171.92857142857144" y="319.05" font-family="Arial" font-size="13" stroke="#ffffff" stroke-width="3" fill="#444444" aria-hidden="true">4</text><text text-anchor="middle" x="171.92857142857144" y="319.05" font-family="Arial" font-size="13" stroke="none" stroke-width="0" fill="#444444">4</text></g></g><g><g><text text-anchor="middle" x="255.07142857142858" y="319.05" font-family="Arial" font-size="13" stroke="#ffffff" stroke-width="3" fill="#444444" aria-hidden="true">5.5</text><text text-anchor="middle" x="255.07142857142858" y="319.05" font-family="Arial" font-size="13" stroke="none" stroke-width="0" fill="#444444">5.5</text></g></g><g><g><text text-anchor="middle" x="338.2142857142857" y="319.05" font-family="Arial" font-size="13" stroke="#ffffff" stroke-width="3" fill="#444444" aria-hidden="true">7</text><text text-anchor="middle" x="338.2142857142857" y="319.05" font-family="Arial" font-size="13" stroke="none" stroke-width="0" fill="#444444">7</text></g></g><g><g><text text-anchor="middle" x="421.3571428571429" y="319.05" font-family="Arial" font-size="13" stroke="#ffffff" stroke-width="3" fill="#444444" aria-hidden="true">8.5</text><text text-anchor="middle" x="421.3571428571429" y="319.05" font-family="Arial" font-size="13" stroke="none" stroke-width="0" fill="#444444">8.5</text></g></g><g><g><text text-anchor="middle" x="504.5" y="319.05" font-family="Arial" font-size="13" stroke="#ffffff" stroke-width="3" fill="#444444" aria-hidden="true">10</text><text text-anchor="middle" x="504.5" y="319.05" font-family="Arial" font-size="13" stroke="none" stroke-width="0" fill="#444444">10</text></g></g><g><g><text text-anchor="end" x="103" y="304.05" font-family="Arial" font-size="13" stroke="#ffffff" stroke-width="3" fill="#444444" aria-hidden="true">0.5</text><text text-anchor="end" x="103" y="304.05" font-family="Arial" font-size="13" stroke="none" stroke-width="0" fill="#444444">0.5</text></g></g><g><g><text text-anchor="end" x="103" y="247.05" font-family="Arial" font-size="13" stroke="#ffffff" stroke-width="3" fill="#444444" aria-hidden="true">0.7</text><text text-anchor="end" x="103" y="247.05" font-family="Arial" font-size="13" stroke="none" stroke-width="0" fill="#444444">0.7</text></g></g><g><g><text text-anchor="end" x="103" y="190.05" font-family="Arial" font-size="13" stroke="#ffffff" stroke-width="3" fill="#444444" aria-hidden="true">0.9</text><text text-anchor="end" x="103" y="190.05" font-family="Arial" font-size="13" stroke="none" stroke-width="0" fill="#444444">0.9</text></g></g><g><g><text text-anchor="end" x="103" y="133.04999999999998" font-family="Arial" font-size="13" stroke="#ffffff" stroke-width="3" fill="#444444" aria-hidden="true">1.1</text><text text-anchor="end" x="103" y="133.04999999999998" font-family="Arial" font-size="13" stroke="none" stroke-width="0" fill="#444444">1.1</text></g></g><g><g><text text-anchor="end" x="103" y="76.05" font-family="Arial" font-size="13" stroke="#ffffff" stroke-width="3" fill="#444444" aria-hidden="true">1.3</text><text text-anchor="end" x="103" y="76.05" font-family="Arial" font-size="13" stroke="none" stroke-width="0" fill="#444444">1.3</text></g></g></g></g><g><g><g><text text-anchor="middle" x="310.5" y="350.55" font-family="Arial" font-size="13" font-style="italic" stroke="#ffffff" stroke-width="3" fill="#222222" aria-hidden="true">k</text><text text-anchor="middle" x="310.5" y="350.55" font-family="Arial" font-size="13" font-style="italic" stroke="none" stroke-width="0" fill="#222222">k</text></g></g><g><g><text text-anchor="middle" x="47.05" y="185.5" font-family="Arial" font-size="13" font-style="italic" transform="rotate(-90 47.05 185.5)" stroke="#ffffff" stroke-width="3" fill="#222222" aria-hidden="true">Davies-Bouldin index</text><text text-anchor="middle" x="47.05" y="185.5" font-family="Arial" font-size="13" font-style="italic" transform="rotate(-90 47.05 185.5)" stroke="none" stroke-width="0" fill="#222222">Davies-Bouldin index</text></g></g></g><g></g></svg>
