<svg width="600" height="371" aria-label="A chart." style="overflow: hidden;"><defs id="defs"><clipPath id="_ABSTRACT_RENDERER_ID_185"><rect x="115" y="71" width="371" height="229"></rect></clipPath></defs><rect x="0" y="0" width="600" height="371" stroke="none" stroke-width="0" fill="#ffffff"></rect><g><g><text text-anchor="start" x="115" y="49.6" font-family="Arial" font-size="16" font-weight="bold" stroke="#ffffff" stroke-width="3" fill="#000000" aria-hidden="true">Perceived user falloff</text><text text-anchor="start" x="115" y="49.6" font-family="Arial" font-size="16" font-weight="bold" stroke="none" stroke-width="0" fill="#000000">Perceived user falloff</text></g></g><g><rect x="498" y="71" width="90" height="82" stroke="none" stroke-width="0" fill-opacity="0" fill="#ffffff"></rect><g><rect x="498" y="71" width="90" height="28" stroke="none" stroke-width="0" fill-opacity="0" fill="#ffffff"></rect><g><text text-anchor="start" x="515" y="81.2" font-family="Arial" font-size="12" stroke="none" stroke-width="0" fill="#222222">From</text><text text-anchor="start" x="515" y="97.2" font-family="Arial" font-size="12" stroke="none" stroke-width="0" fill="#222222">January</text></g><rect x="498" y="71" width="12" height="12" stroke="none" stroke-width="0" fill="#3366cc"></rect></g><g><rect x="498" y="106" width="90" height="28" stroke="none" stroke-width="0" fill-opacity="0" fill="#ffffff"></rect><g><text text-anchor="start" x="515" y="116.2" font-family="Arial" font-size="12" stroke="none" stroke-width="0" fill="#222222">From</text><text text-anchor="start" x="515" y="132.2" font-family="Arial" font-size="12" stroke="none" stroke-width="0" fill="#222222">February</text></g><rect x="498" y="106" width="12" height="12" stroke="none" stroke-width="0" fill="#dc3912"></rect></g><g><rect x="498" y="141" width="90" height="12" stroke="none" stroke-width="0" fill-opacity="0" fill="#ffffff"></rect><g><text text-anchor="start" x="515" y="151.2" font-family="Arial" font-size="12" stroke="none" stroke-width="0" fill="#222222">From March</text></g><rect x="498" y="141" width="12" height="12" stroke="none" stroke-width="0" fill="#ff9900"></rect></g></g><g><rect x="115" y="71" width="371" height="229" stroke="none" stroke-width="0" fill-opacity="0" fill="#ffffff"></rect><g clip-path="url(#_ABSTRACT_RENDERER_ID_185)"><g><rect x="115" y="71" width="1" height="229" stroke="none" stroke-width="0" fill="#cccccc"></rect><rect x="189" y="71" width="1" height="229" stroke="none" stroke-width="0" fill="#cccccc"></rect><rect x="263" y="71" width="1" height="229" stroke="none" stroke-width="0" fill="#cccccc"></rect><rect x="337" y="71" width="1" height="229" stroke="none" stroke-width="0" fill="#cccccc"></rect><rect x="411" y="71" width="1" height="229" stroke="none" stroke-width="0" fill="#cccccc"></rect><rect x="115" y="294" width="371" height="1" stroke="none" stroke-width="0" fill="#cccccc"></rect><rect x="115" y="182" width="371" height="1" stroke="none" stroke-width="0" fill="#cccccc"></rect><rect x="115" y="71" width="371" height="1" stroke="none" stroke-width="0" fill="#cccccc"></rect></g><g><rect x="115" y="71" width="1" height="229" stroke="none" stroke-width="0" fill="#333333"></rect><rect x="115" y="71" width="371" height="1" stroke="none" stroke-width="0" fill="#333333"></rect></g><g><path d="M115.5,71.5C115.5,71.5,164.83333333333334,118.20954723494992,189.5,142.21646571619098C214.16666666666666,166.22338419743207,238.83333333333334,198.76659027049266,263.5,215.5415108874464C288.1666666666667,232.31643150440016,312.8333333333333,234.90071008705397,337.5,242.86598941791354C362.1666666666667,250.8312687487731,386.8333333333333,253.89418510892273,411.5,263.33318687260385C436.16666666666663,272.7721886362849,485.5,299.5,485.5,299.5" stroke="#3366cc" stroke-width="2" fill-opacity="1" fill="none"></path><path d="M115.5,71.5C115.5,71.5,164.83333333333334,122.53814353332405,189.5,148.91870113977345C214.16666666666666,175.29925874622282,238.83333333333334,211.52164110555344,263.5,229.7833456386963C288.1666666666667,248.04505017183914,312.8333333333333,248.48830278558933,337.5,258.4889283386304C362.1666666666667,268.48955389167145,411.5,289.7870989569426,411.5,289.7870989569426" stroke="#dc3912" stroke-width="2" fill-opacity="1" fill="none"></path><path d="M115.5,71.5C115.5,71.5,164.83333333333334,118.67064596532421,189.5,142.21646571619098C214.16666666666666,165.76228546705778,238.83333333333334,195.99999788824692,263.5,212.77491850520067C288.1666666666667,229.54983912215442,337.5,242.86598941791354,337.5,242.86598941791354" stroke="#ff9900" stroke-width="2" fill-opacity="1" fill="none"></path></g></g><g></g><g><g><g><text text-anchor="middle" x="115.5" y="317.2" font-family="Arial" font-size="12" stroke="#ffffff" stroke-width="3" fill="#222222" aria-hidden="true">0</text><text text-anchor="middle" x="115.5" y="317.2" font-family="Arial" font-size="12" stroke="none" stroke-width="0" fill="#222222">0</text></g></g><g><g><text text-anchor="middle" x="189.5" y="317.2" font-family="Arial" font-size="12" stroke="#ffffff" stroke-width="3" fill="#222222" aria-hidden="true">1</text><text text-anchor="middle" x="189.5" y="317.2" font-family="Arial" font-size="12" stroke="none" stroke-width="0" fill="#222222">1</text></g></g><g><g><text text-anchor="middle" x="263.5" y="317.2" font-family="Arial" font-size="12" stroke="#ffffff" stroke-width="3" fill="#222222" aria-hidden="true">2</text><text text-anchor="middle" x="263.5" y="317.2" font-family="Arial" font-size="12" stroke="none" stroke-width="0" fill="#222222">2</text></g></g><g><g><text text-anchor="middle" x="337.5" y="317.2" font-family="Arial" font-size="12" stroke="#ffffff" stroke-width="3" fill="#222222" aria-hidden="true">3</text><text text-anchor="middle" x="337.5" y="317.2" font-family="Arial" font-size="12" stroke="none" stroke-width="0" fill="#222222">3</text></g></g><g><g><text text-anchor="middle" x="411.5" y="317.2" font-family="Arial" font-size="12" stroke="#ffffff" stroke-width="3" fill="#222222" aria-hidden="true">4</text><text text-anchor="middle" x="411.5" y="317.2" font-family="Arial" font-size="12" stroke="none" stroke-width="0" fill="#222222">4</text></g></g><g><g><text text-anchor="end" x="103" y="298.60032034785576" font-family="Arial" font-size="12" stroke="#ffffff" stroke-width="3" fill="#444444" aria-hidden="true">1%</text><text text-anchor="end" x="103" y="298.60032034785576" font-family="Arial" font-size="12" stroke="none" stroke-width="0" fill="#444444">1%</text></g></g><g><g><text text-anchor="end" x="103" y="187.15016017392787" font-family="Arial" font-size="12" stroke="#ffffff" stroke-width="3" fill="#444444" aria-hidden="true">10%</text><text text-anchor="end" x="103" y="187.15016017392787" font-family="Arial" font-size="12" stroke="none" stroke-width="0" fill="#444444">10%</text></g></g><g><g><text text-anchor="end" x="103" y="75.7" font-family="Arial" font-size="12" stroke="#ffffff" stroke-width="3" fill="#444444" aria-hidden="true">100%</text><text text-anchor="end" x="103" y="75.7" font-family="Arial" font-size="12" stroke="none" stroke-width="0" fill="#444444">100%</text></g></g></g></g><g><g><g><text text-anchor="middle" x="300.5" y="349.2" font-family="Arial" font-size="12" stroke="#ffffff" stroke-width="3" fill="#222222" aria-hidden="true">Months passed</text><text text-anchor="middle" x="300.5" y="349.2" font-family="Arial" font-size="12" stroke="none" stroke-width="0" fill="#222222">Months passed</text></g></g><g><g><text text-anchor="middle" x="39.7" y="185.5" font-family="Arial" font-size="12" transform="rotate(-90 39.7 185.5)" stroke="#ffffff" stroke-width="3" fill="#222222" aria-hidden="true">Portion of users remaining</text><text text-anchor="middle" x="39.7" y="185.5" font-family="Arial" font-size="12" transform="rotate(-90 39.7 185.5)" stroke="none" stroke-width="0" fill="#222222">Portion of users remaining</text></g></g></g><g></g></svg>
