<svg width="600" height="371" aria-label="A chart." style="overflow: hidden;"><defs id="defs"><clipPath id="_ABSTRACT_RENDERER_ID_200"><rect x="115" y="71" width="371" height="229"></rect></clipPath></defs><rect x="0" y="0" width="600" height="371" stroke="none" stroke-width="0" fill="#ffffff"></rect><g><g><text text-anchor="start" x="115" y="49.6" font-family="Arial" font-size="16" font-weight="bold" stroke="#ffffff" stroke-width="3" fill="#000000" aria-hidden="true">Perceived user falloff</text><text text-anchor="start" x="115" y="49.6" font-family="Arial" font-size="16" font-weight="bold" stroke="none" stroke-width="0" fill="#000000">Perceived user falloff</text></g></g><g><rect x="498" y="71" width="90" height="82" stroke="none" stroke-width="0" fill-opacity="0" fill="#ffffff"></rect><g><rect x="498" y="71" width="90" height="28" stroke="none" stroke-width="0" fill-opacity="0" fill="#ffffff"></rect><g><text text-anchor="start" x="515" y="81.2" font-family="Arial" font-size="12" stroke="none" stroke-width="0" fill="#222222">From</text><text text-anchor="start" x="515" y="97.2" font-family="Arial" font-size="12" stroke="none" stroke-width="0" fill="#222222">January</text></g><rect x="498" y="71" width="12" height="12" stroke="none" stroke-width="0" fill="#3366cc"></rect></g><g><rect x="498" y="106" width="90" height="28" stroke="none" stroke-width="0" fill-opacity="0" fill="#ffffff"></rect><g><text text-anchor="start" x="515" y="116.2" font-family="Arial" font-size="12" stroke="none" stroke-width="0" fill="#222222">From</text><text text-anchor="start" x="515" y="132.2" font-family="Arial" font-size="12" stroke="none" stroke-width="0" fill="#222222">February</text></g><rect x="498" y="106" width="12" height="12" stroke="none" stroke-width="0" fill="#dc3912"></rect></g><g><rect x="498" y="141" width="90" height="12" stroke="none" stroke-width="0" fill-opacity="0" fill="#ffffff"></rect><g><text text-anchor="start" x="515" y="151.2" font-family="Arial" font-size="12" stroke="none" stroke-width="0" fill="#222222">From March</text></g><rect x="498" y="141" width="12" height="12" stroke="none" stroke-width="0" fill="#ff9900"></rect></g></g><g><rect x="115" y="71" width="371" height="229" stroke="none" stroke-width="0" fill-opacity="0" fill="#ffffff"></rect><g clip-path="url(#_ABSTRACT_RENDERER_ID_200)"><g><rect x="115" y="71" width="1" height="229" stroke="none" stroke-width="0" fill="#cccccc"></rect><rect x="189" y="71" width="1" height="229" stroke="none" stroke-width="0" fill="#cccccc"></rect><rect x="263" y="71" width="1" height="229" stroke="none" stroke-width="0" fill="#cccccc"></rect><rect x="337" y="71" width="1" height="229" stroke="none" stroke-width="0" fill="#cccccc"></rect><rect x="411" y="71" width="1" height="229" stroke="none" stroke-width="0" fill="#cccccc"></rect><rect x="115" y="299" width="371" height="1" stroke="none" stroke-width="0" fill="#cccccc"></rect><rect x="115" y="253" width="371" height="1" stroke="none" stroke-width="0" fill="#cccccc"></rect><rect x="115" y="208" width="371" height="1" stroke="none" stroke-width="0" fill="#cccccc"></rect><rect x="115" y="162" width="371" height="1" stroke="none" stroke-width="0" fill="#cccccc"></rect><rect x="115" y="117" width="371" height="1" stroke="none" stroke-width="0" fill="#cccccc"></rect></g><g><rect x="115" y="71" width="1" height="229" stroke="none" stroke-width="0" fill="#333333"></rect><rect x="115" y="299" width="371" height="1" stroke="none" stroke-width="0" fill="#333333"></rect></g><g><path d="M115.5,71.5C115.5,71.5,164.83333333333334,210.542,189.5,246.60399999999998C214.16666666666666,282.666,238.83333333333334,280.158,263.5,287.872C288.1666666666667,295.586,312.8333333333333,291.672,337.5,292.888C362.1666666666667,294.104,386.8333333333333,294.408,411.5,295.168C436.16666666666663,295.928,485.5,297.448,485.5,297.448" stroke="#3366cc" stroke-width="2" fill-opacity="1" fill="none"></path><path d="M115.5,71.5C115.5,71.5,164.83333333333334,216.888,189.5,253.444C214.16666666666666,290,238.83333333333334,283.958,263.5,290.836C288.1666666666667,297.714,312.8333333333333,293.686,337.5,294.712C362.1666666666667,295.738,411.5,296.992,411.5,296.992" stroke="#dc3912" stroke-width="2" fill-opacity="1" fill="none"></path><path d="M115.5,71.5C115.5,71.5,164.83333333333334,210.656,189.5,246.60399999999998C214.16666666666666,282.552,238.83333333333334,279.474,263.5,287.188C288.1666666666667,294.902,337.5,292.888,337.5,292.888" stroke="#ff9900" stroke-width="2" fill-opacity="1" fill="none"></path></g></g><g></g><g><g><g><text text-anchor="middle" x="115.5" y="317.2" font-family="Arial" font-size="12" stroke="#ffffff" stroke-width="3" fill="#222222" aria-hidden="true">0</text><text text-anchor="middle" x="115.5" y="317.2" font-family="Arial" font-size="12" stroke="none" stroke-width="0" fill="#222222">0</text></g></g><g><g><text text-anchor="middle" x="189.5" y="317.2" font-family="Arial" font-size="12" stroke="#ffffff" stroke-width="3" fill="#222222" aria-hidden="true">1</text><text text-anchor="middle" x="189.5" y="317.2" font-family="Arial" font-size="12" stroke="none" stroke-width="0" fill="#222222">1</text></g></g><g><g><text text-anchor="middle" x="263.5" y="317.2" font-family="Arial" font-size="12" stroke="#ffffff" stroke-width="3" fill="#222222" aria-hidden="true">2</text><text text-anchor="middle" x="263.5" y="317.2" font-family="Arial" font-size="12" stroke="none" stroke-width="0" fill="#222222">2</text></g></g><g><g><text text-anchor="middle" x="337.5" y="317.2" font-family="Arial" font-size="12" stroke="#ffffff" stroke-width="3" fill="#222222" aria-hidden="true">3</text><text text-anchor="middle" x="337.5" y="317.2" font-family="Arial" font-size="12" stroke="none" stroke-width="0" fill="#222222">3</text></g></g><g><g><text text-anchor="middle" x="411.5" y="317.2" font-family="Arial" font-size="12" stroke="#ffffff" stroke-width="3" fill="#222222" aria-hidden="true">4</text><text text-anchor="middle" x="411.5" y="317.2" font-family="Arial" font-size="12" stroke="none" stroke-width="0" fill="#222222">4</text></g></g><g><g><text text-anchor="end" x="103" y="303.7" font-family="Arial" font-size="12" stroke="#ffffff" stroke-width="3" fill="#444444" aria-hidden="true">0%</text><text text-anchor="end" x="103" y="303.7" font-family="Arial" font-size="12" stroke="none" stroke-width="0" fill="#444444">0%</text></g></g><g><g><text text-anchor="end" x="103" y="258.1" font-family="Arial" font-size="12" stroke="#ffffff" stroke-width="3" fill="#444444" aria-hidden="true">20%</text><text text-anchor="end" x="103" y="258.1" font-family="Arial" font-size="12" stroke="none" stroke-width="0" fill="#444444">20%</text></g></g><g><g><text text-anchor="end" x="103" y="212.5" font-family="Arial" font-size="12" stroke="#ffffff" stroke-width="3" fill="#444444" aria-hidden="true">40%</text><text text-anchor="end" x="103" y="212.5" font-family="Arial" font-size="12" stroke="none" stroke-width="0" fill="#444444">40%</text></g></g><g><g><text text-anchor="end" x="103" y="166.89999999999998" font-family="Arial" font-size="12" stroke="#ffffff" stroke-width="3" fill="#444444" aria-hidden="true">60%</text><text text-anchor="end" x="103" y="166.89999999999998" font-family="Arial" font-size="12" stroke="none" stroke-width="0" fill="#444444">60%</text></g></g><g><g><text text-anchor="end" x="103" y="121.3" font-family="Arial" font-size="12" stroke="#ffffff" stroke-width="3" fill="#444444" aria-hidden="true">80%</text><text text-anchor="end" x="103" y="121.3" font-family="Arial" font-size="12" stroke="none" stroke-width="0" fill="#444444">80%</text></g></g></g></g><g><g><g><text text-anchor="middle" x="300.5" y="349.2" font-family="Arial" font-size="12" stroke="#ffffff" stroke-width="3" fill="#222222" aria-hidden="true">Months passed</text><text text-anchor="middle" x="300.5" y="349.2" font-family="Arial" font-size="12" stroke="none" stroke-width="0" fill="#222222">Months passed</text></g></g><g><g><text text-anchor="middle" x="43.2" y="185.5" font-family="Arial" font-size="12" transform="rotate(-90 43.2 185.5)" stroke="#ffffff" stroke-width="3" fill="#222222" aria-hidden="true">Portion of users remaining</text><text text-anchor="middle" x="43.2" y="185.5" font-family="Arial" font-size="12" transform="rotate(-90 43.2 185.5)" stroke="none" stroke-width="0" fill="#222222">Portion of users remaining</text></g></g></g><g></g></svg>
